<svg xmlns="http://www.w3.org/2000/svg" xmlns:xlink="http://www.w3.org/1999/xlink"><symbol id="arr" viewBox="173.5 469 13 9" xmlns="http://www.w3.org/2000/svg"><style>.ast0{fill:none;stroke:#ef4338;stroke-linecap:round;stroke-linejoin:round;stroke-miterlimit:10}</style><path class="ast0" d="M182 469.5l4 4-4 4m-8-4h12"/></symbol><symbol id="arrow-prev" viewBox="0 0 9.9 18" xmlns="http://www.w3.org/2000/svg"><style>.bst0{fill:none;stroke:#000;stroke-width:2;stroke-linecap:round;stroke-linejoin:round;stroke-miterlimit:10}</style><path class="bst0" d="M8.9 1L1 9l7.9 8"/></symbol><symbol id="docs-pdf" viewBox="0 0 39.1 52" xmlns="http://www.w3.org/2000/svg"><style>.cst0{fill:none;stroke:#000;stroke-width:2;stroke-miterlimit:10}</style><path class="cst0" d="M5.6 9.8l-3.5 3.9-.1.1v.1s0 .1-.1.1c0 0 0 .1-.1.1v.1s0 .1-.1.1v.1s0 .1-.1.1c0 0 0 .1-.1.1 0 0 0 .1-.1.2-.3.6-.4 1.2-.4 1.8v29.7C1 48.9 3.1 51 5.7 51h23.4c2.5 0 4.6-2 4.7-4.5 2.4 0 4.3-2 4.3-4.4V7.7c0-3.7-3-6.7-6.7-6.7H10C7.6 1 5.6 3 5.6 5.4v4.4"/><path class="cst0" d="M1 16.3h7.6c1.4 0 2.5-1.1 2.5-2.5V5.3"/><path class="cst0" d="M33.8 47.1V10c0-2.6-2.1-4.7-4.7-4.7h-18c-.5.1-1 .2-1.5.4 0 0-.1 0-.1.1h-.1s-.1 0-.1.1c0 0-.1 0-.1.1 0 0-.1 0-.1.1 0 0-.1 0-.1.1h-.1l-.1.1h-.1l-.1.1h-.1l-.1.1c0 .1 0 .2-.1.2L5.6 9.8"/><path d="M8 34.6v-8.3c.7-.1 1.6-.1 2.8-.1 1 0 1.7.2 2.1.5.4.4.6 1 .6 2s-.2 1.7-.6 2-1 .5-2 .5c-.7 0-1.3 0-1.9-.1v3.3H8zm1.1-4.1h1.8c.6 0 1-.1 1.3-.4.2-.2.3-.7.3-1.3s-.1-1.1-.3-1.3c-.2-.2-.7-.3-1.3-.3H9.1v3.3zm6 4.1v-8.3c1-.1 2-.1 3-.1 1.2 0 2 .3 2.5.9s.7 1.7.7 3.3-.2 2.7-.7 3.3c-.5.6-1.3.9-2.5.9-1 .1-1.9.1-3 0zm1.1-7.5v6.6h1.9c.8 0 1.3-.2 1.7-.7s.5-1.3.5-2.6-.2-2.1-.5-2.6-.9-.7-1.7-.7h-1.9zm11.8.1h-3.1c-.3 0-.5.1-.6.2s-.2.3-.2.6v1.9h3.5v.9h-3.5v3.8H23v-6.8c0-.5.1-.8.4-1.1.3-.3.7-.4 1.2-.4 1.6 0 2.7 0 3.4.1v.8z"/><path class="cst0" d="M1.5 39.1h31.3M1.5 21h31.3"/></symbol><symbol id="docs-xls" viewBox="0 0 37.3 50.1" xmlns="http://www.w3.org/2000/svg"><style>.dst0{clip-path:url(#dSVGID_2_)}.dst1{fill:none;stroke:#000;stroke-miterlimit:10}</style><defs><path id="dSVGID_1_" d="M0 .1h37.3v50H0z"/></defs><clipPath id="dSVGID_2_"><use xlink:href="#dSVGID_1_" overflow="visible"/></clipPath><path class="dst0" d="M32.8 20.9c0-.1-.1-.1-.1-.2s-.1-.1-.1-.1l-.1-.1c-.1 0-.1-.1-.2-.1s-.1 0-.2-.1h-.4c-.1 0-.1 0-.2.1-.1 0-.1.1-.2.1s-.1.1-.1.1l-.1.1c0 .1-.1.1-.1.2s0 .1-.1.2v.4c0 .1 0 .1.1.2 0 .1.1.1.1.2s.1.1.1.1c.2.2.4.3.7.3h.2c.1 0 .1 0 .2-.1.1 0 .1-.1.2-.1s.1-.1.1-.1c.2-.2.3-.4.3-.7v-.2c-.1-.1-.1-.1-.1-.2zm0 0"/><path class="dst0" d="M30.5 0H9.1C6.7 0 4.7 2 4.7 4.4v4.4l-3.5 3.9-.1.1v.1s0 .1-.1.1c0 0 0 .1-.1.1v.1s0 .1-.1.1v.1s0 .1-.1.1c0 0 0 .1-.1.1 0 0 0 .1-.1.2-.3.6-.4 1.2-.4 1.8v29.7c0 2.6 2.1 4.7 4.7 4.7h23.4c2.5 0 4.6-2 4.7-4.5 2.4 0 4.3-2 4.3-4.4V6.7c0-3.7-3-6.7-6.7-6.7zM8.2 7.8v5c0 .3-.2.5-.5.5H3.2l3.1-3.5L8 8l.2-.2zm27 33.2c0 1.3-1.1 2.4-2.4 2.5V25.2c0-.5-.4-1-1-1-.5 0-1 .4-1 1v20.1c0 1.5-1.2 2.8-2.7 2.8H4.8C3.3 48 2 46.8 2 45.3v-30h5.6c1.4 0 2.5-1.1 2.5-2.5V6.3c.2 0 .3-.1.5-.1h17.5c1.5 0 2.8 1.2 2.8 2.7v16.6c0 .5.4 1 1 1 .5 0 1-.4 1-1V9c0-2.6-2.1-4.7-4.7-4.7H10.1c-.5.1-1 .2-1.5.4 0 0-.1 0-.1.1h-.1s-.1 0-.1.1c0 0-.1 0-.1.1 0 0-.1 0-.1.1 0 0-.1 0-.1.1h-.1l-.1.1h-.1l-.1.1c-.1.2-.1.3-.2.3l-.8.9V4.4C6.6 3.1 7.7 2 9.1 2h21.4c2.6 0 4.7 2.1 4.7 4.7V41zm0 0"/><path d="M13.9 25.2l-2.9 4 3.2 4.4H13L10.4 30l-2.6 3.6H6.6l3.2-4.4-2.9-4h1.2l2.2 3.1 2.2-3.1h1.4zm2.9 0v7.4h4.5v1h-5.6v-8.4h1.1zm5.5 6.2c.9.9 2 1.2 2.9 1.2 1.2 0 2.2-.7 2.2-1.6 0-1-1.5-1.2-2.4-1.3-.9-.1-3.3-.3-3.3-2.2 0-1.6 1.4-2.5 3-2.5 1 0 2.2.3 3.1 1l-.6.7c-.7-.5-1.6-.8-2.5-.8-1 0-2 .5-2 1.4 0 1 1.4 1.2 2.4 1.3.9.1 3.3.3 3.3 2.2 0 1.4-1.4 2.5-3.2 2.5-1.2 0-2.5-.5-3.6-1.5l.7-.4z"/><path class="dst1" d="M.6 37.1h31.3M.6 21h31.3"/></symbol><symbol viewBox="0 0 60 60" id="f-btn-1" xmlns="http://www.w3.org/2000/svg"><path d="M41.6 15.5H18.4c-1.1 0-1.9.9-1.9 1.9v5.8c0 .7.4 1.3 1 1.7v2.5c-.6.3-1 1-1 1.7v5.8c0 .7.4 1.3 1 1.7V39c-.6.3-1 1-1 1.7v5.8c0 .7.4 1.3 1 1.7v2.5c-.6.3-1 1-1 1.7v5.8c0 1.1.9 1.9 1.9 1.9h23.2c1.1 0 1.9-.9 1.9-1.9v-5.8c0-.7-.4-1.3-1-1.7v-2.5c.6-.3 1-1 1-1.7v-5.8c0-.7-.4-1.3-1-1.7v-2.5c.6-.3 1-1 1-1.7V29c0-.7-.4-1.3-1-1.7v-2.5c.6-.3 1-1 1-1.7v-5.8c0-.9-.8-1.8-1.9-1.8zm-23.2 1.9h23.2v5.8H18.4v-5.8zm1 32.9v-1.9h21.3v1.9H19.4zm-1-3.8v-5.8h23.2v5.8H18.4zm1-7.8v-1.9h21.3v1.9H19.4zm-1-3.9V29h23.2v5.8H18.4zm1-7.7v-1.9h21.3v1.9H19.4zm-1 31v-5.8h23.2v5.8H18.4zM8.7 44.5h1.9v1.9H8.7zm0 3.9h1.9v1.9H8.7zm40.7-3.9h1.9v1.9h-1.9z"/><path d="M51.3 38.7h3.1c.4 1.1 1.5 1.9 2.7 1.9 1.6 0 2.9-1.3 2.9-2.9s-1.3-2.9-2.9-2.9c-1.3 0-2.3.8-2.7 1.9h-3.1V29h1c4.3 0 7.7-3.5 7.7-7.7 0-3.6-2.5-6.6-5.8-7.5v-.3c0-6.4-5.2-11.6-11.6-11.6-3.3 0-6.5 1.5-8.7 3.9C31.2 2.3 27 0 22.3 0c-7.7 0-14 6-14.5 13.6C3.5 13.5 0 17 0 21.3S3.5 29 7.7 29h1v7.7H5.6c-.4-1.1-1.5-1.9-2.7-1.9-1.6 0-2.9 1.3-2.9 2.9s1.3 2.9 2.9 2.9c1.3 0 2.3-.8 2.7-1.9h3.1v3.9h1.9v-8.7h1.9v22.3h-1.9v-3.9H8.7v3.9H5.6c-.4-1.1-1.5-1.9-2.7-1.9-1.6 0-2.9 1.3-2.9 2.9S1.3 60 2.9 60c1.3 0 2.3-.8 2.7-1.9h7V60h1.9V25.2h-1.9V32h-1.9v-4.8h-3c-3.2 0-5.8-2.6-5.8-5.8 0-3.2 2.6-5.8 5.8-5.8 1.6 0 3 .6 4.1 1.7l1.4-1.4c-1-1-2.2-1.7-3.6-2.1.4-6.6 5.8-11.9 12.5-11.9 6.2 0 11.6 4.6 12.5 10.8l1.9-.3c-.3-1.7-.8-3.4-1.6-4.9 1.8-2.3 4.6-3.7 7.6-3.7 5.3 0 9.7 4.3 9.7 9.7-2.1 0-4.1.8-5.5 2.3l1.4 1.4c1.1-1.1 2.6-1.7 4.1-1.7 3.2 0 5.8 2.6 5.8 5.8 0 3.2-2.6 5.8-5.8 5.8h-2.9v4.8h-1.9v-6.8h-1.9V60h1.9v-1.9h7c.4 1.1 1.5 1.9 2.7 1.9 1.6 0 2.9-1.3 2.9-2.9s-1.3-2.9-2.9-2.9c-1.3 0-2.3.8-2.7 1.9h-3.1v-3.9h-1.9v3.9h-1.9V33.9h1.9v8.7h1.9v-3.9zm5.8-1.9c.5 0 1 .4 1 1s-.4 1-1 1c-.5 0-1-.4-1-1s.5-1 1-1zM2.9 38.7c-.5 0-1-.4-1-1s.4-1 1-1c.5 0 1 .4 1 1s-.5 1-1 1zm0 19.4c-.5 0-1-.4-1-1 0-.5.4-1 1-1 .5 0 1 .4 1 1 0 .5-.5 1-1 1zm54.2-2c.5 0 1 .4 1 1 0 .5-.4 1-1 1-.5 0-1-.4-1-1 0-.5.5-1 1-1zm0 0"/><path d="M49.4 48.4h1.9v1.9h-1.9zm-29.1-29h1.9v1.9h-1.9zm3.9 0h1.9v1.9h-1.9zM33.9 31h1.9v1.9h-1.9zm3.8 0h1.9v1.9h-1.9zM19.4 42.6h1.9v1.9h-1.9zm3.8 0h1.9v1.9h-1.9zm10.7 11.6h1.9v1.9h-1.9zm3.8 0h1.9v1.9h-1.9z"/></symbol><symbol viewBox="0 0 57.3 60" id="f-btn-2" xmlns="http://www.w3.org/2000/svg"><path d="M13.2 40.5s-1.2.6-2.5.6-2.5-.6-2.5-.6c-.4-.2-1-.1-1.2.3-.2.4-.1 1 .3 1.2.1 0 1.5.8 3.3.8s3.3-.8 3.3-.8c.4-.2.6-.8.3-1.2 0-.4-.6-.5-1-.3zm-3.3-2.9c0 .5-.4.9-.9.9s-.9-.4-.9-.9.4-.9.9-.9.9.4.9.9zm3.4 0c0 .5-.4.9-.9.9s-.9-.4-.9-.9.4-.9.9-.9.9.4.9.9zm0 0"/><path d="M56.1 50.7c-.2-.4-.8-.6-1.2-.4-.4.2-.6.8-.4 1.2.7 1.3 1 2.7 1 4.1 0 1.4-1.2 2.6-2.6 2.6H40.2c-.5 0-1-.2-1.5-.4.4-.6.6-1.4.6-2.2 0-1.4-.3-2.8-.8-4 1.5-3 4.6-4.9 8-4.9 2.1 0 4.2.8 5.8 2.2.4.3.9.3 1.2-.1.3-.4.3-.9-.1-1.2-1-.8-2-1.5-3.2-1.9 2.1-1.3 3.5-3.6 3.5-6.3 0-4-3.3-7.3-7.3-7.3s-7.3 3.3-7.3 7.3c0 2.7 1.4 5 3.5 6.3-2.1.8-3.9 2.2-5.2 4.1-1.2-1.9-3-3.3-5.2-4.1 2.1-1.3 3.5-3.6 3.5-6.3 0-4-3.3-7.3-7.3-7.3s-7.3 3.3-7.3 7.3c0 2.6 1.4 5 3.5 6.3-2.1.8-3.9 2.3-5.2 4.1-.4-.6-.9-1.2-1.4-1.7-1.1-1.1-2.4-1.9-3.8-2.4 2.1-1.3 3.5-3.6 3.5-6.3 0-4-3.3-7.3-7.3-7.3s-7.3 3.3-7.3 7.3c0 2.6 1.4 5 3.5 6.3-1.4.5-2.6 1.3-3.7 2.4-.3.3-.4.9 0 1.2.3.3.9.4 1.2 0a9.1 9.1 0 0 1 6.3-2.5c2.4 0 4.6.9 6.3 2.6.7.7 1.2 1.4 1.7 2.3-.5 1.2-.8 2.6-.8 4 0 .8.2 1.5.6 2.2-.4.3-.9.4-1.5.4H4.4c-1.4 0-2.6-1.2-2.6-2.6 0-1.2.2-2.4.7-3.6.2-.4 0-1-.5-1.2-.4-.2-1 0-1.2.5-.5 1.3-.8 2.7-.8 4.2C0 58 2 60 4.4 60h12.7c1 0 1.9-.3 2.6-.9.7.5 1.6.9 2.6.9H35c1 0 1.9-.3 2.6-.9.8.6 1.7.9 2.6.9h12.7c2.4 0 4.4-2 4.4-4.4 0-1.7-.4-3.4-1.2-4.9zM41 39.3c0-3.1 2.5-5.6 5.6-5.6s5.6 2.5 5.6 5.6c0 3.1-2.5 5.6-5.6 5.6S41 42.4 41 39.3zm-35.8 0c0-3.1 2.5-5.6 5.6-5.6s5.6 2.5 5.6 5.6c0 3.1-2.5 5.6-5.6 5.6s-5.6-2.5-5.6-5.6zm17.9 0c0-3.1 2.5-5.6 5.6-5.6 3.1 0 5.6 2.5 5.6 5.6 0 3.1-2.5 5.6-5.6 5.6-3.1 0-5.6-2.5-5.6-5.6zm-.8 18.9c-1.4 0-2.6-1.2-2.6-2.6 0-4.9 4-9 9-9s9 4 9 9c0 1.4-1.2 2.6-2.6 2.6H22.3zm0 0"/><path d="M49.1 40.5s-1.2.6-2.5.6-2.5-.6-2.5-.6c-.4-.2-1-.1-1.2.3-.2.4-.1 1 .3 1.2.1 0 1.5.8 3.3.8s3.3-.8 3.3-.8c.4-.2.6-.8.3-1.2-.1-.4-.6-.5-1-.3zm-3.3-2.9c0 .5-.4.9-.9.9s-.9-.4-.9-.9.4-.9.9-.9.9.4.9.9zm3.3 0c0 .5-.4.9-.9.9s-.9-.4-.9-.9.4-.9.9-.9.9.4.9.9zm-18 2.9s-1.2.6-2.5.6-2.5-.6-2.5-.6c-.4-.2-1-.1-1.2.3-.2.4-.1 1 .3 1.2.1 0 1.5.8 3.3.8 1.8 0 3.3-.8 3.3-.8.4-.2.6-.8.3-1.2 0-.4-.5-.5-1-.3zm-3.2-2.9c0 .5-.4.9-.9.9s-.9-.4-.9-.9.4-.9.9-.9.9.4.9.9zm3.3 0c0 .5-.4.9-.9.9s-.9-.4-.9-.9.4-.9.9-.9.9.4.9.9zm3.3-25.3h12.4c.5 0 .9-.4.9-.9s-.4-.9-.9-.9H34.5c-.5 0-.9.4-.9.9s.4.9.9.9zm0 3.6h12.4c.5 0 .9-.4.9-.9s-.4-.9-.9-.9H34.5c-.5 0-.9.4-.9.9s.4.9.9.9zm0 3.5h12.4c.5 0 .9-.4.9-.9s-.4-.9-.9-.9H34.5c-.5 0-.9.4-.9.9s.4.9.9.9zm0 0"/><path d="M8.7 24.4h4.2c.3 2.3 1.1 4 2.4 5 1.1.8 2.4 1.1 3.5 1.1.7 0 1.3-.1 1.7-.2.5-.1.8-.5.8-1s-.4-.9-.8-1c-.5-.1-.9-.3-1.1-.7-.5-.8-.4-2.3-.2-3.2h5.4c1 0 1.9-.2 2.7-.6.9 2.3 3.1 3.9 5.6 3.9h5.4c.2.9.3 2.3-.2 3.2-.2.4-.6.6-1.1.7-.5.1-.8.5-.8 1s.3.9.8 1c.4.1 1.1.2 1.7.2 1.1 0 2.4-.2 3.5-1.1 1.3-1 2.2-2.7 2.4-5h4.2c3.3 0 6-2.7 6-6V9.3c0-3.3-2.7-6-6-6h-16c-.9 0-1.8.2-2.7.6-.8-2.3-3-3.9-5.6-3.9H13.7c-.5 0-.9.4-.9.9s.4.9.9.9h10.9c2.4 0 4.3 1.9 4.3 4.3v12.4c0 2.3-1.9 4.3-4.3 4.3h-6.1c-.4 0-.7.3-.8.6-.1.3-.9 3.3.3 5.2 0 .1.1.1.1.2-.5-.1-1.1-.3-1.6-.7-1.1-.8-1.7-2.3-1.8-4.5 0-.5-.4-.8-.9-.8h-5c-2.4 0-4.3-1.9-4.3-4.3V6c0-2.3 1.9-4.3 4.3-4.3H10c.5 0 .9-.4.9-.9s-.4-.9-.9-.9H8.7c-3.3 0-6 2.7-6 6v12.4c-.1 3.4 2.6 6.1 6 6.1zm21.8-6V5.7c.7-.5 1.5-.7 2.3-.7h15.8c2.4 0 4.3 1.9 4.3 4.3v12.4c0 2.3-1.9 4.3-4.3 4.3h-5c-.5 0-.8.4-.9.8-.1 2.2-.7 3.7-1.8 4.5-.5.4-1 .6-1.6.7 0-.1.1-.1.1-.2 1.2-1.9.4-4.9.3-5.2-.1-.4-.5-.6-.8-.6h-6.1c-1.9 0-3.6-1.3-4.1-3.2 1.1-1.2 1.8-2.7 1.8-4.4zm0 0"/><path d="M8.4 10.5c0 1.8 1 5.4 7.4 8.8.2.1.5.2.8.2.3 0 .5-.1.8-.2 6.4-3.4 7.4-7 7.4-8.8 0-2.8-2-5-4.5-5-1.7 0-3 .8-3.6 1.4-.7-.6-1.9-1.4-3.6-1.4-2.7-.1-4.7 2.2-4.7 5zm4.5-3.3c1.2 0 2.1.6 2.6 1.1.3.3.7.4 1 .4.4 0 .8-.2 1-.4.5-.5 1.4-1.1 2.6-1.1 1.8 0 2.8 1.7 2.8 3.3 0 2.5-2.3 5.1-6.4 7.3-4.1-2.2-6.4-4.8-6.4-7.3.1-1.6 1.1-3.3 2.8-3.3zm0 0"/></symbol><symbol id="facebook" viewBox="0 0 168 33.3" xmlns="http://www.w3.org/2000/svg"><style>.gst0{fill:#3b5998}</style><path class="gst0" d="M86.5 16.1c-1.4 0-2.4.5-3.4.9v10.5c1 .1 1.5.1 2.4.1 3.3 0 3.8-1.5 3.8-3.7v-5c0-1.5-.5-2.8-2.8-2.8zm-22.1-.5c-2.3 0-2.8 1.3-2.8 2.8v.9h5.7v-.9c-.1-1.6-.6-2.8-2.9-2.8zM21.5 26.5c0 1.2.6 1.9 1.9 1.9 1.4 0 2.2-.5 3.2-.9V25h-3c-1.4 0-2.1.2-2.1 1.5zM108 16.1c-2.3 0-3.1 1.3-3.1 2.8v5.7c0 1.6.8 2.8 3.1 2.8s3.1-1.3 3.1-2.8V19c0-1.6-.8-2.9-3.1-2.9zM10.2 32.9H3.4V16.5H0v-5.7h3.4V7.4C3.4 2.8 5.3 0 10.8 0h4.5v5.7h-2.8c-2.1 0-2.3.8-2.3 2.3v2.8h5.1l-.6 5.7h-4.5v16.4zm23.2.1h-5.7l-.2-1.4c-2.6 1.4-4.9 1.7-6.4 1.7-4.2 0-6.4-2.8-6.4-6.6 0-4.5 2.6-6.1 7.2-6.1h4.7v-1c0-2.3-.3-3-3.8-3H17l.6-5.7H24c7.8 0 9.5 2.5 9.5 8.7L33.4 33zm19.3-16.1c-3.5-.6-4.5-.7-6.2-.7-3 0-4 .7-4 3.3v4.9c0 2.6.9 3.3 4 3.3 1.7 0 2.7-.1 6.2-.7v5.5c-3.1.7-5.1.9-6.8.9-7.3 0-10.2-3.8-10.2-9.4v-4c0-5.6 2.9-9.4 10.2-9.4 1.7 0 3.7.2 6.8.9v5.4zM74 23.8H61.5v.5c0 2.6.9 3.3 4 3.3 2.7 0 4.4-.1 7.9-.7v5.5c-3.4.7-5.2.9-8.5.9-7.3 0-10.2-3.8-10.2-9.4v-4.5c0-4.9 2.2-8.8 9.6-8.8 7.5 0 9.6 3.9 9.6 8.8v4.4zm22.1.1c0 5.4-1.5 9.3-10.8 9.3-3.4 0-5.3-.3-9-.9V1.7L83.1.6v10.7c1.5-.5 3.4-.8 5.1-.8 6.8 0 7.9 3 7.9 7.9v5.5zm21.8.2c0 4.6-1.9 9.1-9.9 9.1s-9.9-4.5-9.9-9.1v-4.5c0-4.6 1.9-9.1 9.9-9.1s9.9 4.5 9.9 9.1v4.5zm21.8 0c0 4.6-1.9 9.1-9.9 9.1s-9.9-4.5-9.9-9.1v-4.5c0-4.6 1.9-9.1 9.9-9.1s9.9 4.5 9.9 9.1v4.5zm22.4 8.8h-7.4l-6.2-10.4v10.4h-6.8V1.7l6.8-1.1v20.1l6.2-9.9h7.4l-6.8 10.8 6.8 11.3zm-32.3-16.8c-2.3 0-3.1 1.3-3.1 2.8v5.7c0 1.6.8 2.8 3.1 2.8s3.1-1.3 3.1-2.8V19c0-1.6-.8-2.9-3.1-2.9zM165.9 29c1.1 0 2.1.9 2.1 2.1 0 1.2-.9 2.1-2.1 2.1-1.1 0-2.1-.9-2.1-2.1.1-1.1 1-2.1 2.1-2.1zm0 .4c-.9 0-1.7.8-1.7 1.8s.8 1.8 1.7 1.8c.9 0 1.7-.8 1.7-1.8s-.7-1.8-1.7-1.8zm-.4 3h-.4V30c.2 0 .4-.1.7-.1.4 0 .6.1.7.2.1.1.2.3.2.5 0 .3-.2.5-.5.6.2 0 .3.2.4.6.1.4.1.5.1.6h-.4c-.1-.1-.1-.3-.2-.6s-.2-.4-.5-.4h-.3l.2 1zm0-1.3h.3c.3 0 .6-.1.6-.4 0-.2-.1-.4-.6-.4h-.3v.8z"/></symbol><symbol id="icon-3" viewBox="0 0 43 44.9" xmlns="http://www.w3.org/2000/svg"><style>.hst0{fill:none;stroke:#fff;stroke-width:2;stroke-linecap:round;stroke-linejoin:round;stroke-miterlimit:10}</style><path class="hst0" d="M34 43.9H2.2c-.7 0-1.2-.6-1.2-1.2V14.4L14.4 1h18c.7 0 1.2.6 1.2 1.2v11.9"/><path class="hst0" d="M14.4 1v11.7c0 .9-.8 1.7-1.7 1.7H1"/><circle class="hst0" cx="27.2" cy="29.1" r="9.9"/><path class="hst0" d="M34.2 36.1l7.8 7.8"/></symbol><symbol id="icon-4" viewBox="0 0 62 57.6" xmlns="http://www.w3.org/2000/svg"><style>.ist0{fill:none;stroke:#fff;stroke-width:2;stroke-linecap:round;stroke-linejoin:round;stroke-miterlimit:10}</style><path class="ist0" d="M13.6 10.2h45.5c1 0 1.9.8 1.9 1.9v42.6c0 1-.8 1.9-1.9 1.9H11.3c-5.1 0-9.9-4.2-10.3-9.3-.4-5.8 4.2-10.6 9.9-10.6V1C5.5 1 1 5.5 1 10.9v35.7"/><path class="ist0" d="M40.9 18H47v23.8h-6.1z"/><path class="ist0" d="M47 41.7l-3 7.6-3.1-7.6"/><circle class="ist0" cx="27" cy="27.6" r="5.2"/><path class="ist0" d="M27 18v4.4m7.3 26.9L27 27.6l-7.3 21.7m3.6-9.8h11"/></symbol><symbol viewBox="0 0 18 18" id="icon-phone" xmlns="http://www.w3.org/2000/svg"><path d="M17 12.5c-1.3 0-2.5-.2-3.6-.6-.1 0-.2-.1-.3-.1-.3 0-.5.1-.7.3l-2.2 2.2c-2.8-1.4-5.1-3.8-6.6-6.6l2.2-2.2c.3-.3.4-.7.3-1-.4-1.1-.6-2.2-.6-3.5 0-.5-.4-1-1-1H1C.5 0 0 .5 0 1c0 9.4 7.6 17 17 17 .5 0 1-.5 1-1v-3.5c0-.6-.5-1-1-1zM2 2h1.5c.1.9.3 1.8.5 2.6L2.8 5.8C2.4 4.6 2.1 3.3 2 2zm14 14c-1.3-.1-2.6-.4-3.8-.8l1.2-1.2c.9.2 1.7.4 2.6.5V16zM9 0v10l3-3h6V0H9zm7 5h-5V2h5v3z"/></symbol><symbol viewBox="0 0 24 24" id="icon-search" xmlns="http://www.w3.org/2000/svg"><path d="M17.2 15.1h-1.1l-.4-.4c1.3-1.6 2.2-3.6 2.2-5.8C17.9 4 13.9 0 9 0S0 4 0 8.9s4 8.9 8.9 8.9c2.2 0 4.2-.8 5.8-2.2l.4.4v1.1L22 24l2-2-6.8-6.9zm-8.3 0c-3.4 0-6.2-2.8-6.2-6.2s2.8-6.2 6.2-6.2 6.2 2.8 6.2 6.2-2.8 6.2-6.2 6.2z"/></symbol><symbol id="icon-user" viewBox="0 0 26 26" xmlns="http://www.w3.org/2000/svg"><style>.lst0{fill:none;stroke:#000;stroke-width:2;stroke-miterlimit:10}</style><path class="lst0" d="M25 13c0-6.6-5.4-12-12-12S1 6.4 1 13c0 3.5 1.5 6.6 3.9 8.8l.4.3s.1 0 .1.1c.2.2.4.3.6.5l.2.2c.2.2.5.3.7.5.1 0 .1.1.2.1.3.2.5.3.8.4H8c.9.4 1.9.7 2.9.9h.1c.3.1.6.1 1 .1h2.2c.3 0 .6-.1 1-.1h.1c1-.2 2-.5 2.9-.9h.1c.3-.1.5-.3.8-.4.1 0 .1-.1.2-.1.2-.1.5-.3.7-.4.1-.1.2-.1.2-.2.2-.1.4-.3.6-.4l.1-.1.4-.3c2.2-2.3 3.7-5.5 3.7-9z"/><path class="lst0" d="M20.2 21.9s-.6-.6-1.1-.9c-1.1-.6-3.1-1.5-3.1-1.5-.3-.1-.5-.4-.5-.8v-1.2c.1-.1.2-.2.2-.3.4-.6.8-1.3 1-2 .5-.2.8-.7.8-1.3v-1.4c0-.3-.1-.7-.3-.9V9.8c0-.2.1-1.4-.7-2.3-.7-.8-1.9-1.2-3.5-1.2s-2.8.4-3.5 1.2c-.8.9-.7 2.1-.7 2.3v1.8c-.2.3-.3.6-.3.9v1.4c0 .4.2.8.5 1.1.3 1.2 1 2.2 1.2 2.5v1.1c0 .3-.2.6-.5.8l-3.1 1.7c-.1.1-.8.6-.9.7"/></symbol><symbol id="instagram" viewBox="0 0 216 61" xmlns="http://www.w3.org/2000/svg"><style>.mst0{fill:#3f5d87}</style><path class="mst0" d="M12.4 0c-2 0-4.5 2.1-6 3.5C3 6.4 0 11.9 0 16.2c0 6.2 5.3 8.5 6.6 8.5.4 0 .8-.2.8-.8 0-.5-.3-.9-.6-1.3-1.2-1.9-1.6-3.6-1.6-6 0-5 2.3-9.6 4.2-11.7.4-.4 1.1-1.2 1.4-1.2.2 0 .3.2.3.8l-.2 32.7c0 5.1-1.5 7.1-1.5 8.3 0 .5.2.7.7.7 2.1 0 4.1-2.5 4.7-3.4 1.8-3.1 2.3-5.6 2.3-12.6V2.7c0-.7-.2-1.1-.9-1.5C15.1.5 13.9 0 12.4 0zm59.2.1c-1 0-1.4.5-1.4 2.1L70 8.7l-5.7-.2c-.3 0-.5.1-.7.4-.5.9-.7 1.6-.7 2.8 0 1 .4 1.1.8 1.1l5.9.2v12.5c0 2.6-1.7 6.1-4.6 8.9 0 0 .3-.9.2-1.8 0-2.6-1.6-4.9-3.8-6.5L56 22c1.1-1.3 3-3.9 3-6 0-1.7-1.1-2.4-3-2.4-2.8 0-6 2.6-6 6.3 0 1.4.6 2.6 1.5 3.6-1.3 2.4-3.1 5.7-4.5 8-1 1.8-2.8 4.4-3.8 4.4-.8 0-1.1-1.2-1.1-5.8 0-3.8.3-7.9.4-11.9 0-.9-.1-1.7-1.3-2.6-1.1-.6-2.4-1.6-3.8-1.6-3.1 0-5.2 2.8-6.6 5.6-1.5 2.9-2.3 5.3-3.4 8.8l.1-12c0-.9-.2-1.2-.9-1.5-.9-.4-2.2-.8-3.4-.8-1 0-1.1.4-1.1 1.4L22 29.9v5.6c0 5 .6 5.9 3.6 5.9 1.6 0 2.2-.2 2.2-1.6 0-.9.5-3.1 1.1-5.3 1.7-6.5 3.7-11.6 7.2-15.6.4-.4.6-.2.6.3 0 0-.6 8.8-.6 12.4 0 6.4 1 9.7 4.2 9.7 3.1 0 6.2-4 7.9-6.7l5.4-9c3.5 3 5.9 5.3 5.9 8.1 0 1.7-1.1 3.4-2.8 3.4-2.1 0-3.4-2.2-4.8-2.2-1.2 0-2.7 2.3-2.7 3.5 0 1.2 2.6 2.9 7.4 2.9 7 0 10.8-4.8 13-10.1.4 6.3 2.9 10 6.9 10 2.6 0 5.6-3.3 6.9-7.2 0 0 .1 1 1.2 3.1 1.4 2.8 3.6 4 6.2 4 3.3 0 6.2-2 7.9-5.4.3 2.6 2.4 5.4 5.9 5.4 2.2 0 4.2-1.7 5.5-4.4 0 0 1.7 4.5 6.6 4.5 2.7 0 6-2.5 6.7-4.4l.1 2.7-7.2 6.7c-2.1 2-4.3 5-4.3 8.2 0 4.1 3.9 6.5 7.3 6.5 3.6 0 5.9-2.3 7.2-4.1 1.6-2.4 2.3-7 2.3-11.6l-.2-6.8c4.9-5.4 8.7-12.7 10.4-18l3.7-.1c.7 0 .7.2.6.7-.6 2.7-1.2 5.9-1.2 8.9 0 5.1 1.2 7.3 2.9 9.2 1.5 1.5 2.9 2 4.5 2 3 0 4.9-2.5 5.5-4.1 1.4 2.8 3.5 4 6.2 4 3.3 0 6.2-2 7.9-5.4.3 2.6 2.4 5.4 5.9 5.4 2.6 0 4.1-1.5 5.3-4.3 0 .9.1 1.9.1 2.8 0 .5.4.8.7.9 1.1.4 2.1.6 2.9.6 2.3 0 2.7-.5 2.7-1.9 0-2.4.1-6.3.8-9.4.7-3.1 1.8-6.6 3.4-9 .1-.3.5-.2.5.1.2 5.2.6 14 1.9 16.2.7 1.1 1.7 1.9 3.3 1.9.7 0 1.6-.3 1.9-.5.2-.2.3-.4.3-.8 0-6.6 2.1-13 4.1-17.4.1-.1.2-.1.2 0L203 25c0 7.8.6 12.8 4.5 15.2.8.4 1.6.7 2.5.7 2 0 3.8-1.1 4.7-2.9.7-1.4 1.4-4.1 1.4-5.6 0-.6 0-1.6-1-1.6-.5 0-.8.4-1 1-.3 1.3-.6 2.4-1 3.6-.5 1.2-1.1 1.9-1.9 1.9-1 0-1.4-.7-1.7-1.2-1.2-1.9-1.3-6.1-1.3-9.7l.3-9.1c0-.8-.3-1.7-1.5-2.3-.8-.5-2.8-1.3-4-1.3-1.1 0-1.7.6-2.1 1.6-.8 1.7-3.3 8.3-4 13.6 0 .1-.2.2-.2 0-.4-3.8-.5-8.4-.5-11.4 0-.9-.2-2.3-2.2-3.1-1-.4-1.8-.6-2.7-.6-1.2 0-1.5.6-1.9 1.4-1.4 2.5-2.3 5.8-3.7 9.9v-9.5c0-.4-.3-1-1-1.2-1.9-.4-2.8-.6-3.6-.6-.6 0-.9.4-.9.9l-.2 16.4c-.4 2-1.9 6.7-4 6.7-1.8 0-2.6-1.8-2.6-9.2l.3-12.1c0-.8-.5-1.1-1.2-1.4-1-.4-1.9-.6-2.9-.6-1.3 0-1.8.6-1.5 2.2-1.5-2-2.9-3.1-5.5-3.1-5.2 0-9.1 6.3-9.1 15.4-.1 2.6.6 5.1.6 5.1-.5 2.1-1.6 3.8-3.1 3.8-1.9 0-3.2-2.7-3.2-7.5 0-4.7 1.8-10.1 1.8-11.5 0-1.7-1.1-2.8-3.1-2.8-1 0-4.6.8-6.5 1.1 0 0 .2-.9.2-1.6 0-1.7-.8-2.7-2.7-2.7-2.4 0-4.1 1.7-4.1 4.6 0 1.3.7 2.5 1.7 3.1-1.3 5.3-3.4 9.3-6.4 13.7l.3-18c0-.6-.2-.9-1.3-1.4-.6-.3-1.6-.6-2.8-.6-1.8 0-1.7 1.3-1.6 2.2-.8-1.5-2.6-3.2-5.4-3.2-7.6 0-9.9 11.6-8.8 19.8 0 1-1 4.6-3.2 4.6-1.8 0-2.6-1.8-2.6-9.2l.3-12.1c0-.8-.5-1.1-1.2-1.4-1-.4-1.9-.6-2.9-.6-1.3 0-1.8.6-1.5 2.2-1.5-2-2.9-3.1-5.5-3.1-5.2 0-9.2 5.7-9.2 14.8 0 3.5-3 8.8-5.1 8.8-1.2 0-2.4-2.1-2.4-7.6 0-3.7.5-16.4.5-16.4l7.3-.1c.3 0 .6-.4.7-.6.3-.7.5-1.1.5-2 0-.7-.1-1-1.1-1.1l-7.3-.4.3-6.8c0-.4-.2-.7-.7-.9C74.4.6 72.7.1 71.6.1zm22.1 17.8c2 0 3.9 1.8 3.9 8.1 0 8-2.9 11.7-5.1 11.7-2.1 0-3.7-2.9-3.7-8.7.1-5.9 1.6-11.1 4.9-11.1zm70.3 0c2 0 3.9 1.8 3.9 8.1 0 8-2.9 11.7-5.1 11.7-2.1 0-3.7-2.9-3.7-8.7.1-5.9 1.6-11.1 4.9-11.1zm-44.6 0c2.5 0 3.7 2.6 3.7 7.7 0 7.7-2.3 12-5.1 12-1.8 0-3.8-2.9-3.7-8.6.1-3.6 1.3-11.1 5.1-11.1zm4.3 25.7v3c0 10-2.7 11.7-4.8 11.7-.8 0-2.8-.6-2.8-3.1 0-3.5 3.6-7.4 4.8-8.6l2.8-3z"/></symbol><symbol id="pro" viewBox="0 0 196 119" xmlns="http://www.w3.org/2000/svg"><style>.nst0{fill:none;stroke:#fff;stroke-width:2;stroke-linecap:round;stroke-linejoin:round;stroke-miterlimit:10}.nst1{fill:#fff}</style><path class="nst0" d="M28.8 26H91v68.8H28.8zm31.1.7v68"/><path class="nst1" d="M49.7 64.2L44.8 56c-.2-.4-.7-.4-.9 0L39 64.2c-.2.4 0 .8.5.8h9.7c.4 0 .7-.5.5-.8zm-5.8-.4l.3-2.2h-1.1l.5-2.5H45l-.7 1.8h1.4l-1.8 2.9z"/><path class="nst0" d="M65 56.2v9.5M105 26h62.2v68.8H105zm31.1.7v68M33.3 34h22.2m-22.2 3.4h22.2m-22.2 3.5h22.2m-22.2 3.4h22.2m-22.2 3.4h22.2m-22.2 3.5h22.2M33.3 70.6h22.2M33.3 74h22.2m-22.2 3.4h22.2m-22.2 3.5h22.2m-22.2 3.4h22.2m-22.2 3.4h22.2M64.4 34h22.2m-22.2 3.4h22.2m-22.2 3.5h22.2m-22.2 3.4h22.2m-22.2 3.4h22.2m-22.2 3.5h22.2M64.4 70.6h22.2M64.4 74h22.2m-22.2 3.4h22.2m-22.2 3.5h22.2m-22.2 3.4h22.2m-22.2 3.4h22.2"/><path class="nst0" d="M179 15.5v79.2H17V15.5"/><path class="nst0" d="M94.4 5.5L13.4 16v-4L98 1l84.6 11v4l-81-10.5M19.8 94.7h156.4v23.2H19.8z"/><path class="nst0" d="M101.6 17.2h-7.2V1.5L98 1l3.6.5z"/><path class="nst1" d="M126.1 64.2l-4.9-8.2c-.2-.4-.7-.4-.9 0l-4.9 8.2c-.2.4 0 .8.5.8h9.7c.4 0 .7-.5.5-.8zm-5.8-.4l.3-2.2h-1.1l.5-2.5h1.4l-.7 1.8h1.4l-1.8 2.9z"/><path class="nst0" d="M141.3 56.2v9.5M109.6 34h22.3m-22.3 3.4h22.3m-22.3 3.5h22.3m-22.3 3.4h22.3m-22.3 3.4h22.3m-22.3 3.5h22.3M109.6 70.6h22.3M109.6 74h22.3m-22.3 3.4h22.3m-22.3 3.5h22.3m-22.3 3.4h22.3m-22.3 3.4h22.3M140.7 34H163m-22.3 3.4H163m-22.3 3.5H163m-22.3 3.4H163m-22.3 3.4H163m-22.3 3.5H163M140.7 70.6H163M140.7 74H163m-22.3 3.4H163m-22.3 3.5H163m-22.3 3.4H163m-22.3 3.4H163M48.5 94.7V114m22.8-19.3V114m-22.8-13.9h22.8m-22.8 5.3h22.8m-22.8 5.2h22.8M124.7 94.7V114m22.8-19.3V114m-22.8-13.9h22.8m-22.8 5.3h22.8m-22.8 5.2h22.8M1 118h194"/></symbol><symbol id="user" viewBox="0 0 18 18" xmlns="http://www.w3.org/2000/svg"><style>.ost0{fill:none;stroke:#000;stroke-width:2;stroke-miterlimit:10}</style><path class="ost0" d="M17 9c0-4.4-3.6-8-8-8S1 4.6 1 9c0 2.3 1 4.4 2.6 5.9l.3.2H4c.1.1.3.2.4.3l.1.1c.2.1.3.2.5.3 0 0 .1 0 .1.1.2.1.4.2.5.3.6.3 1.3.5 1.9.6h.1c.2 0 .4.1.6.1h1.5c.2 0 .4 0 .6-.1h.1c.7-.1 1.3-.3 1.9-.6h.1c.2-.1.4-.2.5-.3 0 0 .1 0 .1-.1.2-.1.3-.2.5-.3.1 0 .1-.1.2-.1.1-.1.3-.2.4-.3 0 0 .1 0 .1-.1l.3-.2C16 13.5 17 11.3 17 9z"/><path class="ost0" d="M13.8 15s-.4-.4-.7-.6c-.8-.5-2.1-1-2.1-1-.2-.1-.3-.3-.3-.5V12l.2-.2c.3-.4.5-.9.7-1.3.3-.2.5-.5.5-.9v-.9c0-.2-.1-.4-.2-.6V6.9c0-.1.1-.9-.5-1.5-.5-.6-1.3-.9-2.4-.9-1 0-1.8.3-2.3.8-.5.7-.5 1.4-.5 1.6v1.2c-.1.2-.2.4-.2.6v.9c0 .3.1.6.4.7.2.9.6 1.5.8 1.7v.8c0 .2-.1.4-.3.5l-2.1 1.1c-.1 0-.5.4-.6.5"/></symbol><symbol id="v0" viewBox="0 0 63 70.2" xmlns="http://www.w3.org/2000/svg"><style>.pst0{fill:none;stroke:#201600;stroke-width:3;stroke-linecap:round;stroke-linejoin:round;stroke-miterlimit:10}</style><path class="pst0" d="M1.5 68.7V57.6c0-1.9.8-3.8 2.1-5.1 1.4-1.4 3.2-2.1 5.1-2.1h1.5c1.9 0 3.8.8 5.1 2.1l6 6c.9.9 2.1 1.4 3.3 1.4h8.1v.4c0 3.4-2.7 6.1-6.1 6.1h-7.9c-1.6 0-3.1-.6-4.2-1.7l-3.8-3.8"/><circle class="pst0" cx="10" cy="37.9" r="7.8"/><path class="pst0" d="M28.4 55.4l5.4-12.7h27.3L54 61.6H37.2m-10.5 4.8h32.7M40.6 1.5c-11.5 0-20.9 6.8-20.9 15.1 0 3.4 1.5 6.5 4.1 9 .5.4.7 1.1.5 1.7l-1.6 7.4c-.2.8.7 1.5 1.5 1.1l9.2-4.6c.4-.2.8-.2 1.3-.2 1.9.4 3.9.6 5.9.6 11.5 0 20.9-6.8 20.9-15.1s-9.3-15-20.9-15zm-9.1 9.3h17.4m-17.4 5.8h17.4m-17.4 5.9h9.7m9.2 23.7l-10.5 6.1m5.6.5l-7.6 4.3"/></symbol><symbol id="vk" viewBox="0 0 196 50" xmlns="http://www.w3.org/2000/svg"><style>.qst0{fill:url(#qSVGID_1_)}.qst1{fill:url(#qSVGID_2_)}.qst2{fill:#fff}.qst3{fill:url(#qSVGID_3_)}</style><linearGradient id="qSVGID_1_" gradientUnits="userSpaceOnUse" x1="-1015.428" y1="-1189.46" x2="-1015.428" y2="-1198.873" gradientTransform="translate(5496.695 6373.986) scale(5.3167)"><stop offset="0" stop-color="#3d658f"/><stop offset="1" stop-color="#6186ad"/></linearGradient><path class="qst0" d="M7.1 0H189c3.9 0 7.1 3.2 7.1 7.1v35.8c0 3.9-3.2 7.1-7.1 7.1H7.1C3.2 50 0 46.8 0 42.9V7.1C0 3.2 3.2 0 7.1 0z"/><image width="82" height="82" xmlns:xlink="http://www.w3.org/1999/xlink" xlink:href="2B53CF6D.png" transform="matrix(.417 0 0 .417 12.094 7.902)" overflow="visible" opacity=".6"/><linearGradient id="qSVGID_2_" gradientUnits="userSpaceOnUse" x1="-1028.371" y1="-1191.253" x2="-1028.371" y2="-1197.08" gradientTransform="translate(5496.695 6373.986) scale(5.3167)"><stop offset="0" stop-color="#ccc"/><stop offset=".15" stop-color="#dbdbdb"/><stop offset=".65" stop-color="#fff"/></linearGradient><path class="qst1" d="M19.7 40.5c-3.3 0-5.9-2.7-5.9-5.9V15.5c0-3.3 2.7-5.9 5.9-5.9h19c3.3 0 5.9 2.7 5.9 5.9v19.1c0 3.3-2.7 5.9-5.9 5.9h-19zm3.3-6.4h7.2c1.2 0 2.2-.1 3-.3.8-.2 1.6-.6 2.2-1.1.6-.4 1-1 1.4-1.7.3-.7.5-1.5.5-2.4 0-1.2-.3-2.2-1-3-.6-.6-1.3-1.1-2.3-1.3.6-.3 1.1-.8 1.5-1.4.4-.7.7-1.5.7-2.4 0-.8-.2-1.5-.5-2.1-.3-.6-.8-1.1-1.5-1.4-.6-.3-1.2-.5-1.9-.6-.7-.1-1.6-.2-2.9-.2H23v17.9zm4.8-3.6v-4h2.5c.4 0 .8.1 1 .2.4.1.7.3.9.6.2.3.3.7.3 1.1 0 .4-.1.7-.3 1-.2.3-.4.5-.8.7-.4.2-.8.3-1.3.3-.4.1-1.2.1-2.3.1zm0-7.4v-3.3h1.9c.4 0 .7.1.9.2.3.1.5.3.6.5.1.3.2.5.2.8 0 .3-.1.7-.2.9-.1.2-.3.4-.6.6-.3.1-.6.2-.9.2h-1.6l-.3.1z"/><path class="qst2" d="M38.7 9.7c3.1 0 5.7 2.6 5.7 5.7v19.1c0 3.2-2.6 5.7-5.7 5.7h-19c-3.1 0-5.7-2.6-5.7-5.7v-19c0-3.2 2.6-5.7 5.7-5.7h19M22.8 34.3h7.4c1.2 0 2.3-.1 3.1-.3.8-.2 1.6-.6 2.3-1.2.6-.5 1.1-1.1 1.4-1.8.4-.7.5-1.6.5-2.5 0-1.3-.4-2.3-1.1-3.1-.5-.6-1.2-1-1.9-1.3.5-.3.8-.7 1.1-1.2.5-.7.7-1.6.7-2.5 0-.8-.2-1.5-.5-2.2-.3-.6-.9-1.1-1.6-1.5-.6-.3-1.3-.6-2-.7-.7-.1-1.6-.2-3-.2h-6.6l.2 18.5M28 20h1.6c.3 0 .6.1.9.2.2.1.4.2.5.4.1.2.2.5.2.7 0 .3-.1.6-.2.8-.1.2-.3.4-.5.5-.3.1-.5.2-.8.2H28V20m.4 6.7h1.9c.4 0 .7.1 1 .1.4.1.6.3.8.5.2.2.2.6.2 1 0 .3-.1.7-.2.9-.1.3-.4.4-.7.6-.4.2-.8.3-1.2.3H28v-3.6l.4.2M38.7 9.3h-19c-3.4 0-6.1 2.8-6.1 6.2v19.1c0 3.4 2.8 6.2 6.1 6.2h19c3.4 0 6.1-2.8 6.1-6.2V15.5c0-3.4-2.8-6.2-6.1-6.2zM23.2 33.9V16.4h6.2c1.3 0 2.3 0 2.9.1.7.1 1.3.3 1.9.6.6.3 1.1.8 1.4 1.4.3.6.5 1.2.5 2 0 .9-.2 1.6-.6 2.3-.4.7-1 1.2-1.8 1.5v.1c1.1.2 1.9.7 2.6 1.4.6.7 1 1.7 1 2.8 0 .9-.2 1.6-.5 2.3-.3.7-.8 1.2-1.3 1.6-.6.5-1.4.9-2.2 1.1-.8.2-1.8.3-3 .3h-7.1zm4.7-14.3h-.3v3.7h2.2c.3 0 .6-.1.9-.2.3-.2.6-.4.7-.7.1-.3.2-.6.2-1 0-.3-.1-.6-.2-.9-.1-.3-.4-.5-.7-.6-.3-.1-.6-.2-1-.2-.5-.1-1.1-.1-1.8-.1zm.5 6.7h-.8v4.4h2.6c.4 0 .9-.1 1.3-.3.4-.2.7-.4.9-.8.2-.3.3-.7.3-1.1 0-.5-.1-1-.3-1.3-.2-.3-.5-.5-1-.7-.3-.1-.6-.2-1.1-.2h-1.9z"/><image width="320" height="46" xlink:href="2B53CF6F.png" transform="matrix(.417 0 0 .417 49.209 15.409)" overflow="visible" opacity=".6"/><linearGradient id="qSVGID_3_" gradientUnits="userSpaceOnUse" x1="-1012.056" y1="-1192.645" x2="-1012.056" y2="-1195.688" gradientTransform="translate(5496.695 6373.986) scale(5.3167)"><stop offset="0" stop-color="#ccc"/><stop offset=".15" stop-color="#dbdbdb"/><stop offset=".65" stop-color="#fff"/></linearGradient><path class="qst3" d="M74.5 33.1c-2.5 0-4.4-.7-5.8-2.2-1.4-1.4-2.1-3.4-2.1-5.9 0-2.5.7-4.5 2.1-6 1.4-1.4 3.3-2.1 5.8-2.1s4.4.7 5.8 2.2c1.4 1.4 2 3.4 2 5.9 0 2.5-.7 4.5-2 5.9-1.4 1.5-3.3 2.2-5.8 2.2zm0-13.1c-.5 0-.9.1-1.3.2s-.7.4-1.1.8c-.3.4-.5.9-.7 1.6-.2.7-.3 1.5-.3 2.4 0 1 .1 1.8.2 2.4.2.6.4 1.1.6 1.5.3.4.6.7 1.1.9.4.2.9.3 1.4.3.4 0 .8-.1 1.3-.3.4-.2.8-.5 1-.8.3-.4.5-.9.7-1.5.2-.6.2-1.4.2-2.4 0-.9-.1-1.7-.2-2.4-.2-.7-.4-1.2-.7-1.6-.3-.4-.7-.7-1.1-.9-.2-.1-.6-.2-1.1-.2zM175 33c-2.9 0-5.1-.7-6.6-2.1-1.5-1.4-2.3-3.3-2.3-5.9 0-2.5.7-4.5 2.1-6 1.4-1.5 3.4-2.2 6-2.2 2.3 0 4.1.6 5.2 1.9 1.2 1.2 1.7 3.1 1.7 5.4v1.5h-10.6v.2c0 .8.2 1.4.5 1.9s.6.9 1.1 1.2c.4.3.9.5 1.5.6.6.1 1.2.2 1.9.2.6 0 1.2-.1 1.7-.2s1-.3 1.5-.5c.4-.2.8-.4 1.1-.6.3-.2.5-.3.8-.5h.2v3.7c-.3.1-.7.3-.9.4-.3.1-.8.3-1.3.4-.5.1-1.1.2-1.6.3-.6.3-1.2.3-2 .3zm-1.2-13.4c-1 0-1.8.3-2.4.9-.6.6-.9 1.4-.9 2.4v.2h6.3v-.2c0-1.1-.3-1.9-.8-2.5-.5-.5-1.2-.8-2.2-.8zm-52 13.4c-1.3 0-2.4-.4-3.3-1.3-.9-.9-1.3-2-1.3-3.4 0-1.1.2-2 .7-2.7.4-.7 1.1-1.2 1.9-1.6.9-.4 1.9-.7 3.1-.9 1.2-.2 2.5-.3 3.9-.4h.2v-.3c0-.9-.4-1.6-1.1-2-.7-.3-1.7-.5-2.9-.5-.6 0-1.3.1-2.1.3-.8.2-1.5.5-2.2.8h-.2v-3.4c.5-.1 1.2-.3 2.2-.4 1.1-.2 2.1-.3 3.2-.3 2.6 0 4.5.4 5.7 1.3 1.2.8 1.7 2.2 1.7 3.9v10.4H127v-1.9l-1.2 1c-.3.2-.6.4-1 .6-.4.2-.8.4-1.2.5-.5.3-1 .3-1.8.3zm5-7.7c-.8.1-1.5.2-2 .2-.5.1-1 .2-1.5.4s-.8.4-1.1.7c-.3.3-.4.8-.4 1.3 0 .8.2 1.4.7 1.7.4.3 1 .4 1.9.4.4 0 .9-.1 1.4-.3.5-.2.9-.5 1.3-.9l.1-.1v-3.6l-.4.2zm28.8 7.3V20.4h-4.8v-3h14.1v3H160v12.2h-4.4zm-10.5 0l-3.7-6.2h-1.6v6.2h-4.4V17.4h4.4v6.3h.2c.7 0 1.3-.1 1.6-.3.4-.2.8-.7 1.2-1.6.1-.3.3-.6.4-.9.1-.3.2-.5.3-.7l.1-.1c.5-1 1-1.7 1.7-2 .7-.4 1.5-.5 2.5-.5h1.5v3.8h-.7c-.3 0-.6.1-.9.2-.3.1-.5.3-.7.5-.2.2-.3.4-.4.6l-.3.5c-.2.4-.3.7-.5 1.1-.1.2-.2.4-.5.5l-.1.1 4.8 7.9-4.9-.2zm-38.3 0V20.4H102v-3h14v3h-4.8v12.2h-4.4zm-11.7 0v-6.7h-5.4v6.7h-4.4V17.4h4.4v5.4h5.4v-5.4h4.4v15.2h-4.4zm-34.7 0l-3.7-6.2h-1.6v6.2h-4.4V17.4h4.4v6.3h.2c.7 0 1.3-.1 1.6-.3.4-.2.8-.7 1.2-1.6.1-.3.3-.6.4-.9.1-.3.3-.6.4-.8V20c.5-1 1-1.7 1.7-2 .7-.4 1.5-.5 2.5-.5h1.5v3.8H64c-.3 0-.6.1-.9.2-.3.1-.5.3-.7.5-.2.2-.3.4-.4.6l-.3.4c-.2.4-.3.7-.5 1.1-.1.2-.2.4-.5.5l-.1.1 4.8 7.9h-5z"/><path class="qst2" d="M174.2 17.1c2.2 0 3.9.6 5.1 1.8 1.1 1.2 1.7 3 1.7 5.3v1.3h-10.6v.4c.1.8.2 1.5.5 2s.7 1 1.2 1.3c.4.3 1 .5 1.6.7.6.1 1.2.2 1.9.2.6 0 1.2-.1 1.8-.2.5-.1 1.1-.3 1.6-.5.4-.2.8-.4 1.1-.6.3-.2.5-.3.7-.5v3.3c-.3.1-.6.2-.8.3-.3.1-.7.3-1.3.4-.5.1-1 .2-1.6.3-.5.1-1.2.1-2 .1-2.8 0-5-.7-6.5-2s-2.2-3.2-2.2-5.7c0-2.4.7-4.4 2.1-5.8 1.2-1.4 3.1-2.1 5.7-2.1m-3.9 6.3h6.7V23c0-1.1-.3-2-.8-2.6-.5-.6-1.3-1-2.4-1-1.1 0-1.9.3-2.5 1-.6.6-.9 1.5-1 2.6v.4m-95.8-6.3c2.4 0 4.3.7 5.6 2.1 1.3 1.4 2 3.3 2 5.8 0 2.4-.7 4.4-2 5.8-1.3 1.4-3.2 2.1-5.6 2.1-2.4 0-4.3-.7-5.6-2.1-1.3-1.4-2-3.3-2-5.8s.7-4.4 2-5.8c1.3-1.4 3.2-2.1 5.6-2.1m0 13.1c.4 0 .9-.1 1.3-.3.5-.2.9-.5 1.1-.9.3-.4.6-1 .7-1.6.2-.6.2-1.4.2-2.4s-.1-1.8-.2-2.4c-.2-.7-.4-1.2-.7-1.6-.3-.4-.7-.8-1.1-1-.4-.2-.9-.3-1.4-.3-.5 0-.9.1-1.3.2-.4.2-.8.5-1.2.9-.3.4-.6 1-.7 1.6-.1.8-.2 1.7-.2 2.6 0 1 .1 1.8.3 2.4.2.6.4 1.2.7 1.5.3.4.7.7 1.1.9.4.3.9.4 1.4.4m49.4-13c2.6 0 4.5.4 5.6 1.3 1.1.8 1.7 2 1.7 3.8v10.2h-4v-2.1l-.7.6-.6.5-.3.2c-.2.2-.6.4-1 .6-.4.2-.8.3-1.2.5-.4.1-.9.2-1.6.2-1.3 0-2.3-.4-3.1-1.3-.8-.9-1.2-1.9-1.2-3.2 0-1.1.2-1.9.6-2.6.4-.6 1-1.2 1.8-1.5.8-.4 1.9-.7 3-.9 1.2-.2 2.5-.3 3.9-.4h.4v-.5c0-1.3-.6-1.9-1.2-2.2-.7-.4-1.7-.5-3-.5-.6 0-1.3.1-2.1.3-.7.2-1.4.4-2.1.7v-3c.5-.1 1.1-.3 2-.4 1-.2 2.1-.3 3.1-.3m.4 13.1c.5 0 1-.1 1.5-.3.5-.2.9-.5 1.3-.9l.1-.1v-4h-.5c-.8.1-1.5.2-2 .2-.5.1-1.1.2-1.6.4s-.9.4-1.2.8c-.3.4-.4.9-.4 1.5 0 .9.3 1.5.8 1.9.5.3 1.1.5 2 .5m23.6-12.7h1.3v3.3h-.5c-.4 0-.7.1-1 .2-.3.1-.5.3-.7.5-.2.2-.4.4-.5.7l-.1.2c0 .1-.1.2-.1.3-.1.4-.3.7-.5 1.1-.1.2-.2.3-.4.5l-.3.2.2.3 4.5 7.4h-4.6l-3.5-6-.1-.2h-1.9v6.2h-4V17.6h4v6.3h.4c.8 0 1.3-.1 1.7-.4.4-.2.8-.8 1.3-1.7.1-.3.3-.6.4-.9.1-.3.2-.5.3-.7l.1-.1c.5-.9 1-1.6 1.6-1.9.6-.4 1.4-.6 2.4-.6m-84.7 0h1.3v3.3H64c-.4 0-.7.1-1 .2-.3.1-.5.3-.7.5-.2.2-.4.4-.5.7l-.1.3-.1.3c-.1.4-.3.7-.5 1.1-.1.2-.2.3-.4.5l-.3.2.2.3 4.5 7.4h-4.6l-3.5-6-.1-.2H55v6.2h-4V17.6h4v6.3h.4c.8 0 1.3-.1 1.7-.4.4-.2.8-.8 1.3-1.7.1-.3.3-.6.4-.9.1-.3.3-.6.4-.8V20c.5-.9 1-1.6 1.6-1.9.7-.3 1.5-.5 2.4-.5m101.4 0v2.6h-4.8v12.2h-4V20.2H151v-2.6h13.6m-48.8 0v2.6H111v12.2h-4V20.2h-4.8v-2.6h13.6m-16.4 0v14.8h-4v-6.7h-5.8v6.7h-4V17.6h4V23h5.8v-5.4h4m74.8-.9c-2.6 0-4.7.8-6.1 2.3-1.5 1.5-2.2 3.6-2.2 6.1 0 2.6.8 4.6 2.3 6 1.6 1.4 3.8 2.1 6.7 2.1.8 0 1.5 0 2-.1s1.1-.2 1.6-.3c.6-.1 1-.3 1.3-.4.3-.1.7-.3 1.1-.4v-4h-.5c-.2.2-.5.3-.8.5-.3.2-.7.4-1.1.6-.5.2-1 .4-1.5.5-.5.1-1.1.2-1.7.2-.7 0-1.3-.1-1.8-.2-.6-.1-1-.3-1.4-.6-.4-.3-.8-.7-1-1.2-.3-.5-.4-1.1-.5-1.8h10.6v-1.8c0-2.4-.6-4.2-1.8-5.5-1.1-1.4-2.9-2-5.2-2zm-3.5 6.3c.1-1 .3-1.7.9-2.3.5-.6 1.3-.8 2.2-.8.9 0 1.6.3 2.1.8.4.5.7 1.3.7 2.4h-5.9V23zm-96.2-6.3c-2.5 0-4.5.7-5.9 2.2-1.4 1.5-2.1 3.5-2.1 6.1 0 2.6.7 4.6 2.1 6.1 1.4 1.5 3.4 2.2 5.9 2.2 2.6 0 4.5-.7 5.9-2.2 1.4-1.5 2.1-3.5 2.1-6.1 0-2.6-.7-4.6-2.1-6.1-1.4-1.5-3.4-2.2-5.9-2.2zm0 13.1c-.5 0-.9-.1-1.3-.3-.4-.2-.7-.4-1-.8-.3-.4-.5-.8-.6-1.4-.2-.6-.2-1.4-.2-2.3 0-1 .1-1.7.3-2.4.2-.6.4-1.1.7-1.5.3-.4.6-.6 1-.8.4-.1.7-.2 1.2-.2s.9.1 1.2.2c.4.2.7.4 1 .8.3.4.5.9.6 1.5.2.6.2 1.4.2 2.3 0 1-.1 1.8-.2 2.3-.1.6-.4 1-.7 1.4-.2.3-.6.6-1 .8-.4.3-.8.4-1.2.4zm49.4-13.1c-1.1 0-2.2.1-3.2.3-1.1.2-1.8.4-2.3.5v3.8h.4c.7-.3 1.5-.6 2.2-.8.8-.2 1.4-.3 2-.3 1.3 0 2.2.2 2.8.5.6.3.9.9.9 1.8v.1c-1.4.1-2.7.2-3.9.4-1.2.2-2.3.5-3.1.9-.9.4-1.5 1-2 1.7s-.7 1.7-.7 2.8c0 1.4.5 2.6 1.4 3.5.9.9 2 1.4 3.4 1.4.7 0 1.3-.1 1.7-.2.4-.1.9-.3 1.3-.5s.8-.4 1.1-.7l.9-.8v1.7h4.8V22.2c0-1.8-.6-3.2-1.8-4.1-1.3-.9-3.2-1.4-5.9-1.4zm.4 13.1c-.8 0-1.3-.1-1.7-.4-.4-.3-.6-.8-.6-1.5 0-.5.1-.9.4-1.2.2-.3.6-.5 1-.7.5-.2 1-.3 1.5-.4.5-.1 1.2-.1 2-.2v3.3c-.3.3-.8.6-1.2.8-.6.2-1 .3-1.4.3zm23.6-12.6c-1 0-1.9.2-2.6.6-.7.4-1.3 1.1-1.8 2.1-.1.3-.3.6-.4.9-.1.3-.3.6-.4.9-.4.8-.8 1.3-1.1 1.5-.3.2-.8.3-1.5.3v-6.3h-4.8v15.6h4.8v-6.2h1.3l3.7 6.2h5.6l-4.9-8c.3-.2.4-.4.5-.6.1-.2.3-.6.5-1.1.1-.2.2-.4.3-.5.1-.2.2-.4.4-.6.2-.2.4-.3.6-.4.2-.1.5-.2.8-.2h.9v-4.2h-1.9zm-84.7 0c-1 0-1.9.2-2.6.6-.7.4-1.3 1.1-1.8 2.1-.1.3-.3.6-.4.9-.1.3-.3.6-.4.9-.4.8-.8 1.3-1.1 1.5-.3.2-.8.3-1.5.3v-6.3h-4.8v15.6h4.8v-6.2h1.3l3.7 6.2H66l-4.9-8c.3-.2.4-.4.5-.6.1-.2.3-.6.5-1.1.1-.2.2-.4.3-.5.1-.2.2-.4.4-.6.2-.2.4-.3.6-.4.2-.1.5-.2.8-.2h.9v-4.2h-1.9zm101.8 0h-14.5v3.4h4.8v12.2h4.8V20.6h4.8l.1-3.4zm-48.8 0h-14.5v3.4h4.8v12.2h4.8V20.6h4.8l.1-3.4zm-16.4 0H95v5.4h-5v-5.4h-4.8v15.6H90v-6.7h5v6.7h4.8V17.2z"/></symbol></svg>