<svg width="20" height="21" viewBox="0 0 20 21" fill="none" xmlns="http://www.w3.org/2000/svg">
<g clip-path="url(#clip0_2007_1679)">
<mask id="mask0_2007_1679" style="mask-type:luminance" maskUnits="userSpaceOnUse" x="0" y="0" width="20" height="21">
<path d="M0 0.5H20V20.5H0V0.5Z" fill="white"/>
</mask>
<g mask="url(#mask0_2007_1679)">
<path fill-rule="evenodd" clip-rule="evenodd" d="M2.14285 3.71428C1.74837 3.71428 1.42857 4.03408 1.42857 4.42856V16.5714C1.42857 16.9658 1.74837 17.2857 2.14285 17.2857H17.8571C18.2516 17.2857 18.5714 16.9658 18.5714 16.5714V4.42856C18.5714 4.03408 18.2516 3.71428 17.8571 3.71428H2.14285ZM0 4.42856C0 3.24509 0.959389 2.28571 2.14285 2.28571H17.8571C19.0406 2.28571 20 3.24509 20 4.42856V16.5714C20 17.7548 19.0406 18.7143 17.8571 18.7143H2.14285C0.959389 18.7143 0 17.7548 0 16.5714V4.42856Z" fill="#02785E"/>
<path fill-rule="evenodd" clip-rule="evenodd" d="M0.170927 4.32208C0.426982 4.02198 0.877832 3.98628 1.17793 4.24234L9.54559 11.382C9.67351 11.4875 9.83415 11.5452 10 11.5452C10.1659 11.5452 10.3265 11.4875 10.4544 11.382L18.8222 4.24234C19.1222 3.98628 19.573 4.02198 19.8292 4.32208C20.0852 4.62218 20.0494 5.07303 19.7493 5.32908L11.3715 12.4774C10.9864 12.7982 10.5011 12.9738 10 12.9738C9.49889 12.9738 9.01364 12.7981 8.62858 12.4774L8.62206 12.472L0.250672 5.32908C-0.0494247 5.07303 -0.0851273 4.62218 0.170927 4.32208Z" fill="#02785E"/>
</g>
</g>
<defs>
<clipPath id="clip0_2007_1679">
<rect width="20" height="20" fill="white" transform="translate(0 0.5)"/>
</clipPath>
</defs>
</svg>
