<svg width="20" height="21" viewBox="0 0 20 21" fill="none" xmlns="http://www.w3.org/2000/svg">
<path d="M16.6667 13.4167C15.625 13.4167 14.625 13.25 13.6917 12.9417C13.6083 12.9167 13.5167 12.9 13.4333 12.9C13.2167 12.9 13.0083 12.9833 12.8417 13.1417L11.0083 14.975C8.65 13.775 6.71667 11.85 5.51667 9.49167L7.35 7.65C7.58333 7.425 7.65 7.1 7.55833 6.80833C7.25 5.875 7.08333 4.875 7.08333 3.83333C7.08333 3.375 6.70833 3 6.25 3H3.33333C2.875 3 2.5 3.375 2.5 3.83333C2.5 11.6583 8.84167 18 16.6667 18C17.125 18 17.5 17.625 17.5 17.1667V14.25C17.5 13.7917 17.125 13.4167 16.6667 13.4167ZM4.19167 4.66667H5.44167C5.5 5.4 5.625 6.125 5.825 6.825L4.825 7.83333C4.48333 6.825 4.26667 5.76667 4.19167 4.66667ZM15.8333 16.3083C14.7333 16.2333 13.6667 16.0167 12.6667 15.675L13.6667 14.675C14.375 14.875 15.1 15 15.8333 15.05V16.3083ZM10 3V11.3333L12.5 8.83333H17.5V3H10ZM15.8333 7.16667H11.6667V4.66667H15.8333V7.16667Z" fill="#C1D98B"/>
</svg>
