<svg width="36" height="36" viewBox="0 0 36 36" fill="none" xmlns="http://www.w3.org/2000/svg">
<rect x="0.5" y="0.5" width="35" height="35" rx="3.5" stroke="#C1D98B"/>
<g clip-path="url(#clip0_218_2563)">
<path d="M22.2857 20.5714H21.3714L21.0286 20.2286C22.1715 18.9714 22.8572 17.2571 22.8572 15.4286C22.8571 11.3143 19.5429 8 15.4286 8C11.3143 8 8 11.3143 8 15.4286C8 19.5429 11.3143 22.8571 15.4286 22.8571C17.2571 22.8571 18.9714 22.1714 20.2286 21.0286L20.5714 21.3714V22.2857L26.2857 28L28 26.2857L22.2857 20.5714ZM15.4286 20.5714C12.5714 20.5714 10.2857 18.2857 10.2857 15.4286C10.2857 12.5714 12.5714 10.2857 15.4286 10.2857C18.2857 10.2857 20.5714 12.5714 20.5714 15.4286C20.5714 18.2857 18.2857 20.5714 15.4286 20.5714Z" fill="#C1D98B"/>
</g>
<defs>
<clipPath id="clip0_218_2563">
<rect width="20" height="20" fill="white" transform="translate(8 8)"/>
</clipPath>
</defs>
</svg>
